<?xml version="1.0" encoding="utf-8"?>
<!-- Generator: Adobe Illustrator 24.3.0, SVG Export Plug-In . SVG Version: 6.00 Build 0)  -->
<svg version="1.1" id="图层_1" xmlns="http://www.w3.org/2000/svg" xmlns:xlink="http://www.w3.org/1999/xlink" x="0px" y="0px"
	 viewBox="0 0 512 512" enable-background="new 0 0 512 512" xml:space="preserve">
<rect x="-3.82" y="213.6" transform="matrix(0.7072 -0.707 0.707 0.7072 -105.9449 255.7979)" fill="#55CCFF" stroke="#0088FF" stroke-width="10" stroke-miterlimit="10" width="519.34" height="84.41"/>
<rect x="213.95" y="-3.47" transform="matrix(0.707 -0.7072 0.7072 0.707 -106.1324 256.2021)" fill="#55CCFF" stroke="#0088FF" stroke-width="10" stroke-miterlimit="10" width="84.41" height="519.34"/>
<polygon fill="#55CCFF" points="262.67,195.36 195.72,262.03 249.07,315.4 315.12,249.62 "/>
<polygon fill="#55CCFF" points="295.33,220.41 319.55,244.62 305.48,257.43 "/>
<g>
	<g>
		<path fill="#55CCFF" d="M314.48,249.75c1.93,0,1.93-3,0-3C312.55,246.75,312.54,249.75,314.48,249.75L314.48,249.75z"/>
	</g>
</g>
<g>
	<g>
		<path fill="#55CCFF" d="M314.25,249.98c1.93,0,1.93-3,0-3C312.31,246.98,312.31,249.98,314.25,249.98L314.25,249.98z"/>
	</g>
</g>
<g>
	<g>
		<path fill="#55CCFF" d="M314.25,249.98c1.93,0,1.93-3,0-3C312.31,246.98,312.31,249.98,314.25,249.98L314.25,249.98z"/>
	</g>
</g>
<g>
	<g>
		<path fill="#55CCFF" d="M314.48,249.75c1.93,0,1.93-3,0-3C312.55,246.75,312.54,249.75,314.48,249.75L314.48,249.75z"/>
	</g>
</g>
<g>
	<g>
		<path fill="#55CCFF" d="M314.48,249.75c1.93,0,1.93-3,0-3C312.55,246.75,312.54,249.75,314.48,249.75L314.48,249.75z"/>
	</g>
</g>
<g>
	<g>
		<path fill="#55CCFF" d="M314.25,250.22c1.93,0,1.93-3,0-3C312.31,247.22,312.31,250.22,314.25,250.22L314.25,250.22z"/>
	</g>
</g>
<polygon fill="none" stroke="#0088FF" stroke-miterlimit="10" points="265.29,192.16 255.87,202.14 260.38,191.59 "/>
<g>
	<g>
		<path fill="#55CCFF" d="M254.27,205.44c0.08-0.02,0.16-0.03,0.24-0.04c-0.13,0.02-0.27,0.04-0.4,0.05c0.27-0.04,0.54-0.03,0.81,0
			c-0.13-0.02-0.27-0.04-0.4-0.05c0.26,0.04,0.51,0.1,0.75,0.2c-0.12-0.05-0.24-0.1-0.36-0.15c0.13,0.05,0.25,0.11,0.36,0.18
			c0.46,0.27,1.05,0.27,1.51,0c0.23-0.13,0.4-0.31,0.54-0.54c0.14-0.23,0.2-0.49,0.2-0.76c-0.05-0.39-0.07-0.59-0.25-0.93
			c-0.05-0.09-0.11-0.16-0.17-0.23c-0.06-0.07-0.11-0.16-0.18-0.22c-0.31-0.27-0.65-0.47-1.05-0.57c-0.29-0.07-0.59-0.11-0.89-0.11
			c-0.18,0-0.36,0.01-0.54-0.01c0.13,0.02,0.27,0.04,0.4,0.05c-0.14-0.02-0.28-0.05-0.41-0.11c0.12,0.05,0.24,0.1,0.36,0.15
			c-0.08-0.03-0.15-0.07-0.22-0.12c0.1,0.08,0.2,0.16,0.3,0.23c-0.05-0.04-0.09-0.08-0.13-0.12c0.08,0.1,0.16,0.2,0.23,0.3
			c-0.02-0.03-0.04-0.07-0.06-0.1c0.05,0.12,0.1,0.24,0.15,0.36c-0.01-0.03-0.02-0.06-0.02-0.09c0.02,0.13,0.04,0.27,0.05,0.4
			c0-0.04,0-0.08,0-0.13c-0.02,0.13-0.04,0.27-0.05,0.4c0-0.02,0.01-0.04,0.01-0.05c0.09-0.39,0.05-0.81-0.15-1.16
			c-0.18-0.31-0.54-0.61-0.9-0.69c-0.38-0.09-0.82-0.07-1.16,0.15c-0.32,0.21-0.6,0.51-0.69,0.9c-0.08,0.33-0.1,0.67-0.01,1
			c0.09,0.34,0.25,0.57,0.46,0.83c0.27,0.33,0.68,0.52,1.07,0.66c0.3,0.11,0.64,0.15,0.96,0.15c0.2,0,0.4-0.01,0.61,0.01
			c-0.13-0.02-0.27-0.04-0.4-0.05c0.13,0.02,0.27,0.05,0.39,0.1c-0.12-0.05-0.24-0.1-0.36-0.15c0.06,0.03,0.11,0.05,0.16,0.09
			c-0.1-0.08-0.2-0.16-0.3-0.23c0.04,0.03,0.07,0.06,0.11,0.1c-0.08-0.1-0.16-0.2-0.23-0.3c0.02,0.03,0.05,0.07,0.06,0.11
			c-0.05-0.12-0.1-0.24-0.15-0.36c0.02,0.04,0.03,0.08,0.04,0.12c-0.02-0.13-0.04-0.27-0.05-0.4c0,0.01,0,0.02,0,0.03
			c0.75-0.43,1.5-0.86,2.26-1.3c-0.44-0.25-0.93-0.45-1.43-0.53c-0.3-0.05-0.62-0.09-0.93-0.09c-0.32,0.01-0.65,0.05-0.97,0.12
			c-0.36,0.08-0.72,0.38-0.9,0.69c-0.19,0.32-0.27,0.8-0.15,1.16c0.12,0.36,0.34,0.71,0.69,0.9
			C253.48,205.48,253.86,205.52,254.27,205.44L254.27,205.44z"/>
	</g>
</g>
<g>
	<g>
		<path fill="#55CCFF" d="M254.33,205c1.93,0,1.93-3,0-3C252.4,202,252.4,205,254.33,205L254.33,205z"/>
	</g>
</g>
<g>
	<g>
		<path fill="#55CCFF" d="M254.8,205c1.93,0,1.93-3,0-3C252.87,202,252.87,205,254.8,205L254.8,205z"/>
	</g>
</g>
</svg>
