<?xml version="1.0" encoding="utf-8"?>
<!-- Generator: Adobe Illustrator 24.3.0, SVG Export Plug-In . SVG Version: 6.00 Build 0)  -->
<svg version="1.1" id="图层_1" xmlns="http://www.w3.org/2000/svg" xmlns:xlink="http://www.w3.org/1999/xlink" x="0px" y="0px"
	 viewBox="0 0 512 512" enable-background="new 0 0 512 512" xml:space="preserve">
<path fill="#0088FF" d="M210.83,56c0-7.49,8-13.63,17.77-13.63h56.27c9.77,0,17.77,6.13,17.77,13.63H210.83z"/>
<polyline fill="#0088FF" points="302.65,95.8 302.65,56 210.83,56 210.83,95.8 "/>
<path fill="#0088FF" d="M409.96,140.32H102.04c-11.02,0-20.04-9.02-20.04-20.04v0c0-11.02,9.02-20.04,20.04-20.04h307.93
	c11.02,0,20.04,9.02,20.04,20.04v0C430,131.31,420.98,140.32,409.96,140.32z"/>
<path fill="#0088FF" d="M365.8,469.63H147.17c-6.6,0-12-5.4-12-12v-300.8c0-6.6,5.4-12,12-12H365.8c6.6,0,12,5.4,12,12v300.8
	C377.8,464.23,372.4,469.63,365.8,469.63z"/>
<path fill="#66CCFF" d="M255.73,455.72L255.73,455.72c10.35,0,18.82-8.47,18.82-18.82V177.24c0-10.35-8.47-18.82-18.82-18.82h0
	c-10.35,0-18.82,8.47-18.82,18.82V436.9C236.91,447.25,245.38,455.72,255.73,455.72z"/>
<path fill="#66CCFF" d="M322.06,455.32L322.06,455.32c10.35,0,18.82-8.47,18.82-18.82V176.84c0-10.35-8.47-18.82-18.82-18.82h0
	c-10.35,0-18.82,8.47-18.82,18.82V436.5C303.24,446.85,311.71,455.32,322.06,455.32z"/>
<path fill="#66CCFF" d="M190.01,455.32L190.01,455.32c10.35,0,18.82-8.47,18.82-18.82V176.84c0-10.35-8.47-18.82-18.82-18.82h0
	c-10.35,0-18.82,8.47-18.82,18.82V436.5C171.19,446.85,179.66,455.32,190.01,455.32z"/>
</svg>
