<?xml version="1.0" encoding="utf-8"?>
<!-- Generator: Adobe Illustrator 24.3.0, SVG Export Plug-In . SVG Version: 6.00 Build 0)  -->
<svg version="1.1" id="图层_1" xmlns="http://www.w3.org/2000/svg" xmlns:xlink="http://www.w3.org/1999/xlink" x="0px" y="0px"
	 viewBox="0 0 512 512" enable-background="new 0 0 512 512" xml:space="preserve">
<g>
	<path fill="#0088FF" d="M254.43,107.84c31.36,0,62.36,8.37,89.65,24.21c41.35,24,70.89,62.66,83.16,108.88
		c12.27,46.21,5.81,94.43-18.19,135.79c-16.03,27.62-39.13,50.46-66.79,66.05c-26.87,15.14-57.37,23.14-88.2,23.14
		c-31.37,0-62.37-8.37-89.67-24.21c-41.35-24-70.89-62.66-83.16-108.88c-12.27-46.21-5.81-94.43,18.19-135.79
		c16.03-27.62,39.13-50.46,66.79-66.05C193.08,115.85,223.58,107.85,254.43,107.84L254.43,107.84 M254.41,97.84
		c-65.17,0-128.58,33.75-163.64,94.17c-52.39,90.28-21.68,205.94,68.6,258.33c29.86,17.33,62.48,25.56,94.69,25.56
		c65.17,0,128.58-33.75,163.64-94.17c52.39-90.28,21.68-205.94-68.6-258.33C319.24,106.08,286.62,97.84,254.41,97.84L254.41,97.84z"
		/>
</g>
<g>
	<path fill="#55CCFF" d="M254.6,107.03v30c26.35,0,52.4,7.04,75.36,20.36c34.77,20.18,59.6,52.69,69.92,91.54
		c10.32,38.85,4.89,79.4-15.29,114.17c-13.48,23.23-32.89,42.43-56.14,55.52c-22.6,12.73-48.26,19.46-74.2,19.46
		c-26.36,0-52.42-7.04-75.37-20.36c-34.77-20.18-59.6-52.69-69.92-91.54c-10.32-38.85-4.89-79.4,15.29-114.17
		c13.48-23.23,32.89-42.43,56.14-55.52c22.6-12.73,48.26-19.46,74.2-19.47L254.6,107.03 M254.59,107.03
		c-62.24,0-122.8,32.23-156.28,89.93c-50.04,86.22-20.7,196.68,65.52,246.71c28.52,16.55,59.67,24.41,90.43,24.41
		c62.24,0,122.8-32.23,156.28-89.93c50.04-86.22,20.7-196.68-65.52-246.71C316.5,114.89,285.34,107.03,254.59,107.03L254.59,107.03z
		"/>
</g>
<circle fill="none" stroke="#0088FF" stroke-width="10" stroke-miterlimit="10" cx="253.55" cy="287.06" r="149.5"/>
<rect x="301.9" y="106.85" transform="matrix(0.2567 0.9665 -0.9665 0.2567 383.6891 -250.8176)" fill="#55CCFF" stroke="#0088FF" stroke-width="10" stroke-miterlimit="10" width="106.01" height="34.36"/>
<rect x="276.35" y="150.95" transform="matrix(0.9665 -0.2567 0.2567 0.9665 -32.1207 90.1651)" fill="#55CCFF" stroke="#0088FF" stroke-width="10" stroke-miterlimit="10" width="106.01" height="34.36"/>
<polygon fill="#55CCFF" points="370.42,133.03 373.05,145.89 350.03,151.69 346.24,139.04 "/>
</svg>
